<mxfile host="app.diagrams.net" modified="2024-06-24T10:11:08.314Z" agent="Mozilla/5.0 (Macintosh; Intel Mac OS X 10.15; rv:127.0) Gecko/20100101 Firefox/127.0" version="24.6.2" etag="bIwogC_Kcp04OQQxMc76" type="github">
  <diagram name="Page-1" id="qYU9Ulp_ExvP144HwVtU">
    <mxGraphModel>
      <root>
        <mxCell id="0" />
        <mxCell id="1" parent="0" />
      </root>
    </mxGraphModel>
  </diagram>
</mxfile>
